<?xml version="1.0" encoding="UTF-8" standalone="no"?>
<svg
   width="125.6977"
   height="95.438004"
   viewBox="0 0 125.6977 95.438004"
   version="1.1"
   xml:space="preserve"
   style="clip-rule:evenodd;fill-rule:evenodd;stroke-linejoin:round;stroke-miterlimit:2"
   id="svg532"
   sodipodi:docname="wikijs.svg"
   inkscape:version="1.1.2 (0a00cf5339, 2022-02-04)"
   xmlns:inkscape="http://www.inkscape.org/namespaces/inkscape"
   xmlns:sodipodi="http://sodipodi.sourceforge.net/DTD/sodipodi-0.dtd"
   xmlns="http://www.w3.org/2000/svg"
   xmlns:svg="http://www.w3.org/2000/svg"><sodipodi:namedview
     id="namedview534"
     pagecolor="#ffffff"
     bordercolor="#666666"
     borderopacity="1.0"
     inkscape:pageshadow="2"
     inkscape:pageopacity="0.0"
     inkscape:pagecheckerboard="0"
     showgrid="false"
     fit-margin-top="0"
     fit-margin-left="0"
     fit-margin-right="0"
     fit-margin-bottom="0"
     inkscape:zoom="1.7036505"
     inkscape:cx="152.02648"
     inkscape:cy="122.09077"
     inkscape:window-width="1920"
     inkscape:window-height="1128"
     inkscape:window-x="0"
     inkscape:window-y="40"
     inkscape:window-maximized="1"
     inkscape:current-layer="svg532" /><path
     d="m 63.540704,48.75 c 0,0 20.812,0.75 30.375,9 C 103.4777,66 110.0407,81.75 107.2277,95.438 101.6027,94.125 77.602704,90 67.852704,78 c -9.75,-12 -9.375,-20.437 -8.25,-25.5 1.125,-5.062 3.938,-3.75 3.938,-3.75"
     style="fill:#1c9cf3;fill-rule:nonzero"
     id="path22" /><path
     d="m 59.892704,52.551 c -0.475,2.139 -0.988,5.498 0.046,9.953 1.125,4.848 3.801,10.068 8.198,15.31 10.06,11.993 38.390996,16.857 38.734996,16.932 1.077,-6.234 0.35,-12.729 -2.175,-19.516 -2.494,-6.704 -6.499996,-12.668 -11.278996,-16.793 -9.415,-8.121 -30.26,-8.963 -30.469,-8.97 l -0.215,-0.008 -0.155,-0.081 c -0.002,0 -0.177,-0.067 -0.418,-0.067 -0.998,0 -1.803,1.15 -2.268,3.24 z"
     style="fill:url(#_Radial5);fill-rule:nonzero"
     id="path24" /><path
     d="m 58.102704,48.75 c 0,0 2.625,5.438 -3.562,13.688 -6.188,8.25 -19.125,21.562 -51.3750002,18.75 1.125,-7.688 6.75,-15.563 12.9370002,-21.188 6.188,-5.625 20.063,-11.437 29.25,-11.625 9.188,-0.187 12.75,0.375 12.75,0.375"
     style="fill:#04bbf3;fill-rule:nonzero"
     id="path26" /><path
     d="m 45.515704,49.104 c -4.286,0.087 -10.037,1.469 -15.783,3.792 -5.597,2.262 -10.53,5.127 -13.534,7.858 -6.7620002,6.148 -11.1150002,13.417 -12.4130002,19.94 2.596,0.201 7.4470002,0.302 7.4470002,0.302 11.549,0 21.195,-2.117 29.11,-6.626 7.017,-3.996 11.231,-8.995 13.79,-12.407 4.909,-6.545 4.149,-11.122 3.717,-12.555 -1.08,-0.116 -3.81,-0.344 -8.669,-0.344 -1.165,0 -2.398,0.013 -3.665,0.04 z"
     style="fill:url(#_Linear6);fill-rule:nonzero"
     id="path28" /><path
     d="m 123.7277,29.625 c 0,0 -3.75,10.875 -22.125,16.125 -18.374996,5.25 -38.061996,1.875 -38.061996,1.875 0,0 4.687,-12.375 18.187,-18.187 13.5,-5.813 37.312996,-0.563 41.999996,0.187"
     style="fill:#02bef3;fill-rule:nonzero"
     id="path30" /><path
     d="m 81.392704,30.649 c -10.988,4.731 -16.174,13.887 -17.695,17.055 2.266,0.309 7.463,0.902 13.983,0.902 8.656,0 16.566,-1.006 23.509996,-2.99 14.825,-4.235 20.235,-12.672 21.72,-15.505 -0.243,-0.043 -17.126,-3.378 -26.757996,-3.378 -6.903,0 -10.593,2.121 -14.76,3.916 z"
     style="fill:url(#_Radial7);fill-rule:nonzero"
     id="path32" /><path
     d="m 57.769704,49.375 c 0,0 -26.74,-1.259 -42.435,-12.71 C -0.36129622,25.214 7.0378401e-4,21.439 7.0378401e-4,21.439 c 0,0 17.59900021599,-0.054 26.28600021599,3.078 8.688,3.133 22.336,11.948 31.483,24.858"
     style="fill:#02bef3;fill-rule:nonzero"
     id="path34" /><path
     d="m 16.257704,36.456 c 6.069,4.428 13.396,7.558 22.006,9.664 0.002,0.001 0.002,0.001 0.004,0.001 9.149,1.098 16.735,2.791 18.559,2.947 -4.016,-5.463 -9.015,-10.405 -14.381,-14.518 -5.193,-3.99 -10.674,-7.143 -15.228,-8.942 -0.845,-0.337 -1.74,-0.639 -2.662,-0.915 -8.018,-2.397 -21.4650002,-2.554 -23.5330002,-2.584 0.509,0.942 2.299,4.909 15.2350002,14.347 z"
     style="fill:url(#_Radial8);fill-rule:nonzero"
     id="path36" /><path
     d="m 57.961704,51.967 c 2.377,0.304 3.66,5.62 2.862,11.865 -0.798,6.244 -3.376,11.067 -5.754,10.763 -2.377,-0.303 -3.66,-5.62 -2.862,-11.864 0.798,-6.245 3.376,-11.068 5.754,-10.764 z"
     style="fill:url(#_Radial9)"
     id="path38" /><g
     id="g48"
     transform="translate(-2.1452962,-1.903)"><path
       d="m 63.623,50.523 c -7.957,1.497 3.291,37.119 15.337,42.529 23.156,10.401 35.993,-9.611 35.993,-16.859 0,-7.249 -31.884,-29.326 -51.33,-25.67 z"
       style="fill:url(#_Radial10);fill-rule:nonzero"
       id="path40" /><path
       d="M 52.38,60.705 C 49.485,65.966 72.746,83.87 83.148,81.871 93.55,79.872 107.419,69.342 106.34,63.619 105.261,57.895 86.345,42.036 71.209,47.706 61.28,51.425 55.275,55.444 52.38,60.705 Z"
       style="fill:url(#_Radial11);fill-rule:nonzero"
       id="path42" /><path
       d="M 62.304,63.032 C 60.127,68.629 75.384,84.566 85.432,81.214 95.48,77.862 107.841,65.597 106.018,60.066 104.194,54.535 83.354,41.305 69.097,48.92 c -9.352,4.994 -4.616,8.515 -6.793,14.112 z"
       style="fill:url(#_Radial12);fill-rule:nonzero"
       id="path44" /><path
       d="M 60.721,60.475 C 58.867,65.196 71.802,78.616 80.337,75.779 88.872,72.942 99.38,62.588 97.838,57.926 96.296,53.264 78.617,42.133 66.504,48.569 58.559,52.79 62.576,55.754 60.721,60.475 Z"
       style="fill:url(#_Radial13);fill-rule:nonzero"
       id="path46" /></g><g
     id="g56"
     transform="translate(-2.1452962,-1.903)"><path
       d="M 63.547,59.973 C 61.97,64.766 44.374,84.569 32.235,87.347 20.095,90.126 8.142,77.425 7.023,71.562 5.904,65.7 24.225,48.99 42.998,47.542 c 12.314,-0.95 23.195,4.395 20.549,12.431"
       style="fill:url(#_Radial14);fill-rule:nonzero"
       id="path50" /><path
       d="M 63.205,57.315 C 61.991,62.895 45.836,85.099 33.848,87.464 21.859,89.832 8.86,73.791 7.281,66.728 5.703,59.665 22.826,41.199 41.586,40.93 53.89,40.753 65.242,47.956 63.205,57.315"
       style="fill:url(#_Radial15);fill-rule:nonzero"
       id="path52" /><path
       d="M 54.504,60.754 C 52.787,63.856 38.701,74.587 30.622,74.27 22.543,73.954 16.914,62.693 17.091,58.324 17.268,53.955 31.346,45.556 43.41,48.065 c 7.913,1.647 13.974,7.488 11.094,12.689"
       style="fill:url(#_Radial16);fill-rule:nonzero"
       id="path54" /></g><path
     d="m 34.595704,53.635 c -3.519,0.436 -20.482,-4.644 -24.9780002,-11.365 -4.497,-6.719 1.2990002,-17.895 4.9370002,-20.322 3.637,-2.426 18.71,4.018 23.777,15.251 3.323,7.368 2.164,15.705 -3.736,16.436"
     style="fill:url(#_Radial17);fill-rule:nonzero"
     id="path58" /><g
     id="g66"
     transform="translate(-2.1452962,-1.903)"><path
       d="m 98.43,26.371 c 15.231,-2.015 28.385,2.308 29.356,9.649 0.972,7.34 -10.605,14.936 -25.836,16.951 C 86.719,54.986 73.566,50.663 72.594,43.323 71.623,35.982 83.2,28.387 98.43,26.371 Z"
       style="fill:url(#_Radial18)"
       id="path60" /><path
       d="m 101.52,27.364 c 13.736,1.417 24.292,8.341 23.559,15.452 C 124.345,49.927 112.597,54.55 98.861,53.132 85.124,51.715 74.568,44.791 75.302,37.68 76.036,30.569 87.783,25.946 101.52,27.364 Z"
       style="fill:url(#_Radial19)"
       id="path62" /><path
       d="m 91.728,29.668 c 11.581,-1.43 21.601,2.407 22.36,8.562 0.76,6.154 -8.027,12.311 -19.608,13.74 -11.582,1.429 -21.602,-2.407 -22.361,-8.562 -0.76,-6.154 8.027,-12.311 19.609,-13.74 z"
       style="fill:url(#_Radial20)"
       id="path64" /></g><path
     d="m 59.201704,49.132 c 0.022,0.368 0.979,7.845 -5.49,10.653 -5.003,2.171 -11.153,3.242 -24.791,-2.947 -13.639,-6.188 -18.378,-15.179 -18.378,-15.179 0,0 7.629,2.802 12.367,3.153 4.739,0.35 16.99,2.101 20.111,2.685 3.12,0.584 8.668,0.117 10.749,-0.35 2.08,-0.468 5.201,-1.752 5.432,1.985"
     style="fill:#b3c3ce;fill-rule:nonzero"
     id="path68" /><path
     d="m 28.919704,56.463 c 13.639,6.189 19.79,5.118 24.792,2.948 6.468,-2.809 5.512,-10.286 5.49,-10.655 -0.232,-3.736 -3.352,-2.451 -5.432,-1.984 -2.081,0.467 -7.49,0.137 -11.979,-0.178 -5.344,-0.375 -13.969,-1.5 -18.88,-2.158 -4.71,-0.63 -12.368,-3.153 -12.368,-3.153 0,0 4.74,8.991 18.377,15.18 z"
     style="fill:url(#_Linear21);fill-rule:nonzero"
     id="path70" /><path
     d="m 55.110704,42.324 c 0,0 -4.342,-3.433 -7.875,-7.168 -3.534,-3.736 -14.943,-14.539 -17.77,-17.467 -2.826,-2.927 -10.5,-12.923 -11.51,-17.164 -2.322,5.15 -3.836,14.539 -1.009,23.626 2.826,9.087 9.39,15.649 18.072,19.284 8.683,3.634 16.255,3.433 18.375,3.433 2.121,0 5.049,-1.414 1.717,-4.544"
     style="fill:#f5f6f2;fill-rule:nonzero"
     id="path72" /><path
     d="m 17.321704,24.151 c 2.827,9.086 9.39,15.649 18.073,19.283 8.682,3.636 16.254,3.687 18.375,3.687 1.197,0 4.989,-0.152 5.177,-0.714 0.403,-1.211 -1.926,-2.108 -3.375,-3.469 -3.848,-3.042 -3.776,-3.358 -7.961,-7.782 -3.534,-3.736 -14.943,-14.539 -17.769,-17.467 -2.827,-2.928 -10.502,-12.923 -11.511,-17.164 -2.322,5.149 -3.837,14.539 -1.009,23.626 z"
     style="fill:url(#_Linear22);fill-rule:nonzero"
     id="path74" /><path
     d="M 103.1857,5.637 C 99.435704,9.012 92.790704,13.5 86.415704,17.625 c -6.375,4.125 -10.5,11.063 -15.375,18.375 -4.875,7.313 -9.75,10.875 -9.75,10.875 0,0 7.687,1.125 15,1.125 11.256,0 23.999996,-9.375 28.686996,-14.437 4.688,-5.063 7.838,-13.31 7.875,-21.75 0.043,-9.861 -4.519,-11.792 -4.519,-11.792 0,0 -1.398,2.241 -5.148,5.616 z"
     style="fill:url(#_Linear23);fill-rule:nonzero"
     id="path76" /><path
     d="M 103.7137,4.876 C 99.962704,8.251 92.415704,13.5 86.040704,17.625 c -6.375,4.125 -10.5,11.063 -15.375,18.375 -3.75,5.626 -8.444,8.724 -10.41,10.329 -0.59,0.482 -0.934,1.765 -0.934,1.765 6.769,0.99 8.351,-0.094 16.594,-0.094 11.255,0 24,-9.375 28.686996,-14.437 4.688,-5.063 7.688,-13.313 7.875,-21.75 C 112.6657,3.375 108.3527,0 108.3527,0 c 0,0 -0.89,1.501 -4.639,4.876 z"
     style="fill:url(#_Linear24);fill-rule:nonzero"
     id="path78" /><g
     id="g84"
     transform="translate(-2.1452962,-1.903)"><path
       d="m 44.632,31.45 c 8.133,5.258 12.662,12.735 10.107,16.686 -2.555,3.952 -11.232,2.89 -19.364,-2.368 C 27.242,40.509 22.713,33.032 25.268,29.081 27.823,25.13 36.5,26.191 44.632,31.45 Z"
       style="fill:url(#_Radial25)"
       id="path80" /><path
       d="m 43.849,30.894 c 7.726,5.84 12.066,13.139 9.684,16.29 -2.382,3.151 -10.588,0.968 -18.314,-4.871 -7.726,-5.839 -12.065,-13.139 -9.684,-16.29 2.382,-3.151 10.588,-0.968 18.314,4.871 z"
       style="fill:url(#_Radial26)"
       id="path82" /></g><g
     id="g94"
     transform="translate(-2.1452962,-1.903)"><path
       d="M 78.741,36.006 C 86.779,31.512 94.699,30.358 96.416,33.429 98.132,36.5 93.001,42.641 84.963,47.135 76.925,51.628 69.006,52.783 67.289,49.712 65.572,46.641 70.704,40.5 78.741,36.006 Z"
       style="fill:url(#_Radial27)"
       id="path86" /><path
       d="m 81.132,32.187 c 7.951,-4.445 15.94,-5.31 17.83,-1.93 1.89,3.38 -3.032,9.733 -10.983,14.178 -7.951,4.445 -15.94,5.31 -17.829,1.93 -1.89,-3.38 3.031,-9.733 10.982,-14.178 z"
       style="fill:url(#_Radial28)"
       id="path88" /><path
       d="m 80.126,35.267 c 7.501,-5.169 15.482,-6.621 17.812,-3.24 2.331,3.381 -1.867,10.323 -9.367,15.493 -7.5,5.169 -15.481,6.621 -17.812,3.24 -2.33,-3.381 1.867,-10.323 9.367,-15.493 z"
       style="fill:url(#_Radial29)"
       id="path90" /><path
       d="m 89.308,27.918 c 2.879,-6.448 7.508,-10.659 10.333,-9.399 2.824,1.261 2.78,7.52 -0.098,13.967 -2.879,6.448 -7.509,10.659 -10.333,9.399 -2.824,-1.261 -2.78,-7.519 0.098,-13.967 z"
       style="fill:url(#_Radial30)"
       id="path92" /></g><path
     d="m 24.550704,16.231 c -0.805,5.903 0.586,11.978 3.363,15.977 2.778,4.002 10.763,11.808 18.631,12.918 5.111,0.719 10.596,0.69 10.596,0.69 0,0 -3.058,-2.97 -5.745,-8.562 -2.687,-5.591 -4.888,-10.846 -8.937,-14.358 -4.05,-3.51 -8.254,-7.302 -10.543,-10.031 -2.288,-2.728 -3.044,-4.431 -3.044,-4.431 0,0 -3.38,0.899 -4.321,7.797 z"
     style="fill:url(#_Linear31);fill-rule:nonzero"
     id="path96" /><path
     d="m 24.813704,16.268 c -0.7,5.916 0.585,11.978 3.363,15.978 2.778,4 10.762,11.808 18.63,12.916 5.762,0.812 6.31,1.127 11.139,1.101 0,0 -3.6,-3.381 -6.288,-8.972 -2.688,-5.591 -4.887,-10.847 -8.937,-14.358 -4.05,-3.51 -8.808,-7.923 -11.097,-10.651 -2.289,-2.728 -2.764,-3.865 -2.764,-3.865 0,0 -3.347,1.934 -4.046,7.851 z"
     style="fill:url(#_Linear32);fill-rule:nonzero"
     id="path98" /><g
     id="g106"
     transform="translate(-2.1452962,-1.903)"><path
       d="m 57.708,51.938 c 1.06,3.068 -2.837,7.203 -8.697,9.227 -5.861,2.024 -11.479,1.176 -12.539,-1.892 -1.059,-3.069 2.838,-7.203 8.698,-9.227 5.86,-2.024 11.479,-1.176 12.538,1.892 z"
       style="fill:url(#_Radial33)"
       id="path100" /><path
       d="m 55.199,53.999 c 0.119,2.902 -4.178,5.44 -9.592,5.663 -5.413,0.223 -9.904,-1.952 -10.024,-4.854 -0.12,-2.903 4.178,-5.44 9.591,-5.664 5.413,-0.223 9.905,1.953 10.025,4.855 z"
       style="fill:url(#_Radial34)"
       id="path102" /><path
       d="m 60.024,52.648 c 0.852,2.014 -2.078,5.179 -6.538,7.064 -4.459,1.885 -8.771,1.781 -9.622,-0.233 -0.851,-2.014 2.079,-5.179 6.538,-7.064 4.46,-1.885 8.771,-1.78 9.622,0.233 z"
       style="fill:url(#_Radial35)"
       id="path104" /></g><path
     d="m 31.521704,49.663 c 2.166,3.131 5.442,5.398 8.477,6.086 3.035,0.69 10.168,0.927 14.358,-1.941 2.722,-1.866 5.295,-4.245 5.295,-4.245 0,0 -2.723,-0.081 -6.401,-1.56 -3.679,-1.479 -6.984,-3.009 -10.407,-2.919 -3.425,0.09 -7.043,0.115 -9.299,-0.185 -2.257,-0.299 -3.348,-0.777 -3.348,-0.777 0,0 -1.205,1.882 1.325,5.541 z"
     style="fill:url(#_Linear36);fill-rule:nonzero"
     id="path108" /><path
     d="m 31.661704,49.568 c 2.221,3.091 5.441,5.396 8.476,6.086 3.036,0.688 10.17,0.928 14.358,-1.942 3.068,-2.103 3.462,-2.19 5.729,-4.285 0,0 -3.155,-0.041 -6.835,-1.52 -3.679,-1.478 -6.982,-3.009 -10.407,-2.918 -3.424,0.091 -7.572,0.062 -9.828,-0.238 -2.256,-0.3 -2.97,-0.632 -2.97,-0.632 0,0 -0.745,2.356 1.477,5.449 z"
     style="fill:url(#_Linear37);fill-rule:nonzero"
     id="path110" /><path
     d="m 98.774704,48.588 c -3.373,1.42 -18.374,0.622 -23.876,0 -5.503,-0.621 -11.189,-0.525 -12.25,-0.621 -3.796,-0.342 -3.106,0.887 -3.373,4.704 -0.621,10.563 3.373,12.693 6.302,13.137 2.93,0.444 5.593,-0.976 5.593,-0.976 0,0 29.023996,-13.137 31.686996,-14.558 0.496,-2.724 0.376,-3.586 -0.232,-3.586 -0.7,0 -2.047,1.141 -3.850996,1.9 z"
     style="fill:url(#_Radial38);fill-rule:nonzero"
     id="path112" /><g
     id="g120"
     transform="translate(-2.1452962,-1.903)"><path
       d="m 73.82,53.958 c 4.948,3.511 7.617,8.26 5.958,10.598 -1.66,2.339 -7.024,1.386 -11.971,-2.126 -4.948,-3.511 -7.617,-8.26 -5.958,-10.599 1.66,-2.338 7.024,-1.385 11.971,2.127 z"
       style="fill:url(#_Radial39)"
       id="path114" /><path
       d="m 72.54,53.958 c 3.799,2.696 5.535,6.783 3.876,9.121 -1.66,2.338 -6.091,2.047 -9.889,-0.649 -3.799,-2.696 -5.535,-6.783 -3.876,-9.121 1.66,-2.338 6.091,-2.047 9.889,0.649 z"
       style="fill:url(#_Radial40)"
       id="path116" /><path
       d="m 76.317,54.251 c 3.798,2.696 5.534,6.783 3.875,9.121 -1.66,2.338 -6.091,2.048 -9.889,-0.648 -3.798,-2.696 -5.535,-6.783 -3.875,-9.122 1.659,-2.338 6.09,-2.047 9.889,0.649 z"
       style="fill:url(#_Radial41)"
       id="path118" /></g><path
     d="m 61.350704,53.277 c 2.637,4.341 9.236,7.059 12.286,7.681 3.05,0.622 6.968,-0.097 10.231,-2.059 3.811,-2.292 3.487,-4.503 3.487,-4.503 0,0 -1.191,-0.015 -3.37,-0.669 -2.18,-0.657 -5.468,-2.168 -8.551,-3.66 -3.083,-1.491 -6.724,-1.457 -10.686,-1.624 -3.961,-0.167 -6.476,-1.212 -6.476,-1.212 0,0 1.366,3.228 3.079,6.046 z"
     style="fill:url(#_Linear42);fill-rule:nonzero"
     id="path122" /><path
     d="m 61.263704,53.133 c 2.635,4.341 9.235,7.059 12.285,7.68 3.05,0.622 6.933,-0.154 10.23,-2.058 3.298,-1.903 3.588,-4.356 3.588,-4.356 0,0 -0.786,0.007 -2.965,-0.648 -2.18,-0.656 -5.972,-2.337 -9.056,-3.828 -3.083,-1.492 -6.724,-1.458 -10.686,-1.624 -3.961,-0.168 -6.854,-1.429 -6.854,-1.429 1.203,2.843 1.527,3.085 3.458,6.263 z"
     style="fill:url(#_Linear43);fill-rule:nonzero"
     id="path124" /><path
     d="m 101.8837,50.719 c 0,0 1.219,-0.937 1.125,-2.812 -0.093,-1.875 0.375,-4.688 -9.561996,-10.782 -3.281,5.907 -14.625,21.657 -19.594,25.219 -4.969,3.563 -5.765,3.442 -5.765,3.442 0,0 2.871,-0.343 5.39,-2.223 2.723,-2.032 28.405996,-12.844 28.405996,-12.844"
     style="fill:#cbd3dd;fill-rule:nonzero"
     id="path126" /><path
     d="m 74.227704,62.532 c -3.085,2.212 -4.026,2.655 -4.716,2.945 0.257,-0.077 2.189,-0.583 4.341,-1.726 3,-1.594 28.405996,-12.844 28.405996,-12.844 0,0 1.219,-0.938 1.125,-2.813 -0.093,-1.875 0.375,-4.687 -9.561996,-10.781 -3.281,5.906 -14.625,21.657 -19.594,25.219 z"
     style="fill:url(#_Linear44);fill-rule:nonzero"
     id="path128" /><path
     d="m 58.763704,51.417 c -0.618,-0.001 -6.022,9.819 -3.491,21.069 0,0 3.615,-4.338 4.058,-15.247 0.183,-4.5 -0.133,-5.822 -0.567,-5.822 z"
     style="fill:url(#_Linear45);fill-rule:nonzero"
     id="path130" /><path
     d="m 44.677704,20.148 c 1.272,-1.24 5.598,-0.248 6.615,1.116 0.995,1.333 6.118,6.458 5.875,14.213 0.788,0.033 1.832,0.17 3.031,0.17 1.036,0 1.994,-0.102 2.781,-0.152 -0.252,-7.765 4.878,-12.897 5.873,-14.231 1.017,-1.364 5.343,-2.356 6.615,-1.116 1.273,1.24 -2.035,1.116 -3.562,0.744 -4.941,1.094 -8.097,12.039 -8.769,14.594 1.152,-0.063 1.896,0.018 1.896,0.781 0,1.156 -1.619,3.021 -3.872,3.221 0.092,0.464 0.627,3.053 0.024,5.777 -0.245,1.107 -2.519,2.36 -2.519,2.36 -2.415,-7.912 -0.023,-8.682 0.01,-8.748 -1.978,-0.296 -3.057,-1.549 -3.057,-2.61 0,-0.676 0.517,-0.817 1.387,-0.796 -0.681,-2.582 -3.835,-13.487 -8.765,-14.579 -1.527,0.372 -4.835,0.496 -3.563,-0.744"
     style="fill:#00c6f9;fill-rule:nonzero"
     id="path132" /><path
     d="m 68.852704,21.639 c -0.995,1.335 -6.125,6.465 -5.873,14.232 -0.787,0.049 -1.746,0.151 -2.781,0.151 -1.199,0 -2.243,-0.136 -3.031,-0.17 0.243,-7.755 -4.88,-12.88 -5.874,-14.213 -1.018,-1.365 -5.344,-2.356 -6.616,-1.116 -1.272,1.24 2.036,1.116 3.563,0.744 4.93,1.092 8.084,11.997 8.765,14.579 -0.87,-0.02 -1.387,0.12 -1.387,0.796 0,1.061 0.786,2.39 2.763,2.684 -0.033,0.066 -1.658,1.243 0.284,8.674 0,0 3.102,-0.292 2.628,-6.639 -0.054,-0.733 -0.13,-1.319 -0.223,-1.783 2.252,-0.201 3.962,-1.781 3.962,-2.936 0,-0.762 -0.744,-0.843 -1.897,-0.781 0.674,-2.555 3.829,-13.5 8.77,-14.594 1.527,0.372 4.835,0.496 3.562,-0.744 -0.408,-0.398 -1.13,-0.566 -1.956,-0.566 -1.75,0 -3.968,0.755 -4.659,1.682 z"
     style="fill:url(#_Radial46);fill-rule:nonzero"
     id="path134" /><path
     d="m 47.859704,8.166 c -0.937,1.89 2.368,2.172 3.493,1.605 3.635,1.665 5.958,18.288 6.46,22.224 -0.641,-0.032 -1.022,0.182 -1.022,1.212 0,1.617 0.873,3.929 2.329,4.38 -0.024,0.1 -0.037,0.16 -0.037,0.16 0,0 -2.48,4.628 -0.417,14.753 0,0 2.307,-5.062 2.307,-12.099 0,-1.119 -0.096,-2.01 -0.165,-2.718 1.66,-0.306 2.92,-2.714 2.92,-4.476 0,-1.161 -0.547,-1.285 -1.397,-1.189 0.387,-4.644 1.969,-20.385 6.463,-22.247 1.125,0.567 4.286,0.354 3.348,-1.536 -0.937,-1.89 -4.255,-0.383 -5.571,1.387 -1.445,1.942 -4.932,10.629 -4.747,22.466 -0.579,0.076 -0.896,0.174 -1.658,0.174 -0.883,0 -1.653,-0.208 -2.234,-0.259 0.179,-11.822 -3.677,-19.606 -4.329,-21.665 -0.616,-1.95 -2.533,-3.102 -4.027,-3.102 -0.755,0 -1.401,0.295 -1.716,0.93 z"
     style="fill:url(#_Linear47);fill-rule:nonzero"
     id="path136" /><path
     d="m 47.859704,8.534 c -0.937,1.874 2.368,2.154 3.493,1.591 3.635,1.652 5.958,18.142 6.46,22.047 -0.641,-0.031 -1.022,0.181 -1.022,1.203 0,1.604 0.873,3.897 2.329,4.344 -0.024,0.099 -0.037,0.159 -0.037,0.159 0,0 -4.295,14.834 -1.47,24.548 0,0 3.708,-12.317 3.36,-21.915 -0.04,-1.109 -0.096,-1.994 -0.165,-2.697 1.66,-0.302 2.92,-2.691 2.92,-4.439 0,-1.153 -0.547,-1.275 -1.397,-1.181 0.387,-4.606 1.969,-20.221 6.463,-22.069 1.125,0.563 4.286,0.352 3.348,-1.523 -0.937,-1.875 -4.255,-0.38 -5.571,1.376 -1.445,1.926 -4.932,10.544 -4.747,22.287 -0.579,0.075 -0.896,0.173 -1.658,0.173 -0.883,0 -1.653,-0.207 -2.234,-0.257 0.179,-11.729 -3.677,-19.449 -4.329,-21.493 -0.616,-1.934 -2.533,-3.077 -4.027,-3.077 -0.754,0.001 -1.401,0.293 -1.716,0.923 z"
     style="fill:url(#_Linear48);fill-rule:nonzero"
     id="path138" /><path
     d="m 64.132704,42.388 c 0,0 3.743,-2.96 6.791,-6.181 3.047,-3.222 12.885,-12.537 15.323,-15.063 2.438,-2.524 9.055,-11.144 9.926,-14.801 2.003,4.441 3.308,12.538 0.87,20.373 -2.437,7.836 -8.097,13.496 -15.584,16.63 -7.488,3.134 -14.018,2.96 -15.845,2.96 -1.829,0 -4.354,-1.219 -1.481,-3.918"
     style="fill:#f5f6f2;fill-rule:nonzero"
     id="path140" /><path
     d="m 85.923704,21.144 c -2.439,2.526 -12.276,11.841 -15.323,15.063 -3.609,3.815 -3.547,4.087 -6.865,6.711 -1.25,1.173 -3.205,2.507 -2.946,3.072 0.259,0.564 3.467,0.316 4.5,0.316 1.828,0 8.358,0.174 15.846,-2.96 7.487,-3.134 13.146,-8.794 15.584,-16.629 2.439,-7.836 1.132,-15.933 -0.871,-20.374 -0.87,3.658 -7.487,12.277 -9.925,14.801 z"
     style="fill:url(#_Linear49);fill-rule:nonzero"
     id="path142" /><defs
     id="defs530"><linearGradient
       id="_Linear1"
       x1="0"
       y1="0"
       x2="1"
       y2="0"
       gradientUnits="userSpaceOnUse"
       gradientTransform="matrix(0,-56.6692,56.6692,0,299.387,73.7943)"><stop
         offset="0"
         style="stop-color:#2196f3;stop-opacity:1"
         id="stop172" /><stop
         offset="0.01"
         style="stop-color:#2196f3;stop-opacity:1"
         id="stop174" /><stop
         offset="1"
         style="stop-color:#00c0f3;stop-opacity:1"
         id="stop176" /></linearGradient><linearGradient
       id="_Linear2"
       x1="0"
       y1="0"
       x2="1"
       y2="0"
       gradientUnits="userSpaceOnUse"
       gradientTransform="matrix(0,-56.6692,56.6692,0,313.219,73.7943)"><stop
         offset="0"
         style="stop-color:#2196f3;stop-opacity:1"
         id="stop179" /><stop
         offset="0.01"
         style="stop-color:#2196f3;stop-opacity:1"
         id="stop181" /><stop
         offset="1"
         style="stop-color:#00c0f3;stop-opacity:1"
         id="stop183" /></linearGradient><linearGradient
       id="_Linear3"
       x1="0"
       y1="0"
       x2="1"
       y2="0"
       gradientUnits="userSpaceOnUse"
       gradientTransform="matrix(-12.1464,7.83636,-7.83636,-12.1464,353.869,59.5849)"><stop
         offset="0"
         style="stop-color:#2196f3;stop-opacity:1"
         id="stop186" /><stop
         offset="0.01"
         style="stop-color:#2196f3;stop-opacity:1"
         id="stop188" /><stop
         offset="1"
         style="stop-color:#00c0f3;stop-opacity:1"
         id="stop190" /></linearGradient><linearGradient
       id="_Linear4"
       x1="0"
       y1="0"
       x2="1"
       y2="0"
       gradientUnits="userSpaceOnUse"
       gradientTransform="matrix(-6.465,27.8191,-27.8191,-6.465,351.575,31.532)"><stop
         offset="0"
         style="stop-color:#2196f3;stop-opacity:1"
         id="stop193" /><stop
         offset="0.01"
         style="stop-color:#2196f3;stop-opacity:1"
         id="stop195" /><stop
         offset="1"
         style="stop-color:#00c0f3;stop-opacity:1"
         id="stop197" /></linearGradient><radialGradient
       id="_Radial5"
       cx="0"
       cy="0"
       r="1"
       gradientUnits="userSpaceOnUse"
       gradientTransform="matrix(-66.1387,0,0,66.1387,60.429404,47.9191)"><stop
         offset="0"
         style="stop-color:#3d4ead;stop-opacity:1"
         id="stop200" /><stop
         offset="1"
         style="stop-color:#00c0f3;stop-opacity:1"
         id="stop202" /></radialGradient><linearGradient
       id="_Linear6"
       x1="0"
       y1="0"
       x2="1"
       y2="0"
       gradientUnits="userSpaceOnUse"
       gradientTransform="matrix(-54.7355,0,0,-32.1015,58.169404,65.1146)"><stop
         offset="0"
         style="stop-color:#3f51b4;stop-opacity:1"
         id="stop205" /><stop
         offset="1"
         style="stop-color:#00c0f3;stop-opacity:1"
         id="stop207" /></linearGradient><radialGradient
       id="_Radial7"
       cx="0"
       cy="0"
       r="1"
       gradientUnits="userSpaceOnUse"
       gradientTransform="matrix(-66.1374,0,0,66.1374,60.429604,47.9191)"><stop
         offset="0"
         style="stop-color:#3d4ead;stop-opacity:1"
         id="stop210" /><stop
         offset="1"
         style="stop-color:#00c0f3;stop-opacity:1"
         id="stop212" /></radialGradient><radialGradient
       id="_Radial8"
       cx="0"
       cy="0"
       r="1"
       gradientUnits="userSpaceOnUse"
       gradientTransform="matrix(-52.6361,-107.604,-12.8428,112.241,48.635104,122.554)"><stop
         offset="0"
         style="stop-color:#0072e9;stop-opacity:1"
         id="stop215" /><stop
         offset="1"
         style="stop-color:#00fdfe;stop-opacity:1"
         id="stop217" /></radialGradient><radialGradient
       id="_Radial9"
       cx="0"
       cy="0"
       r="1"
       gradientUnits="userSpaceOnUse"
       gradientTransform="matrix(4.0052,0.526563,-1.46889,11.3112,56.515804,63.2813)"><stop
         offset="0"
         style="stop-color:#153e68;stop-opacity:0.34"
         id="stop220" /><stop
         offset="1"
         style="stop-color:#153e68;stop-opacity:0.01"
         id="stop222" /></radialGradient><radialGradient
       id="_Radial10"
       cx="0"
       cy="0"
       r="1"
       gradientUnits="userSpaceOnUse"
       gradientTransform="matrix(-10.3568,10.999,26.0381,24.5177,76.5301,64.2632)"><stop
         offset="0"
         style="stop-color:#00336f;stop-opacity:1"
         id="stop225" /><stop
         offset="1"
         style="stop-color:#00336f;stop-opacity:0"
         id="stop227" /></radialGradient><radialGradient
       id="_Radial11"
       cx="0"
       cy="0"
       r="1"
       gradientUnits="userSpaceOnUse"
       gradientTransform="matrix(-6.51962,11.4057,24.5674,14.4231,74.7463,58.6441)"><stop
         offset="0"
         style="stop-color:#00336f;stop-opacity:0.5"
         id="stop230" /><stop
         offset="1"
         style="stop-color:#00336f;stop-opacity:0"
         id="stop232" /></radialGradient><radialGradient
       id="_Radial12"
       cx="0"
       cy="0"
       r="1"
       gradientUnits="userSpaceOnUse"
       gradientTransform="matrix(-4.96046,12.1651,26.2531,11.0614,74.0442,59.2965)"><stop
         offset="0"
         style="stop-color:#00336f;stop-opacity:0.5"
         id="stop235" /><stop
         offset="1"
         style="stop-color:#00336f;stop-opacity:0"
         id="stop237" /></radialGradient><radialGradient
       id="_Radial13"
       cx="0"
       cy="0"
       r="1"
       gradientUnits="userSpaceOnUse"
       gradientTransform="matrix(-4.22491,10.2622,22.277,9.29717,70.6931,57.3125)"><stop
         offset="0"
         style="stop-color:#00336f;stop-opacity:1"
         id="stop240" /><stop
         offset="1"
         style="stop-color:#00336f;stop-opacity:0"
         id="stop242" /></radialGradient><radialGradient
       id="_Radial14"
       cx="0"
       cy="0"
       r="1"
       gradientUnits="userSpaceOnUse"
       gradientTransform="matrix(-9.78901,-10.0451,-28.1355,22.8978,44.6851,58.4131)"><stop
         offset="0"
         style="stop-color:#002d68;stop-opacity:1"
         id="stop245" /><stop
         offset="1"
         style="stop-color:#002d68;stop-opacity:0"
         id="stop247" /></radialGradient><radialGradient
       id="_Radial15"
       cx="0"
       cy="0"
       r="1"
       gradientUnits="userSpaceOnUse"
       gradientTransform="matrix(-10.6184,-12.7117,-26.5102,25.0697,44.123,53.9971)"><stop
         offset="0"
         style="stop-color:#002d68;stop-opacity:1"
         id="stop250" /><stop
         offset="1"
         style="stop-color:#002d68;stop-opacity:0"
         id="stop252" /></radialGradient><radialGradient
       id="_Radial16"
       cx="0"
       cy="0"
       r="1"
       gradientUnits="userSpaceOnUse"
       gradientTransform="matrix(-4.66402,-8.96904,-21.2029,10.9396,42.8368,56.0939)"><stop
         offset="0"
         style="stop-color:#002d68;stop-opacity:1"
         id="stop255" /><stop
         offset="1"
         style="stop-color:#002d68;stop-opacity:0"
         id="stop257" /></radialGradient><radialGradient
       id="_Radial17"
       cx="0"
       cy="0"
       r="1"
       gradientUnits="userSpaceOnUse"
       gradientTransform="matrix(4.51007,-9.04744,-21.3185,-10.7126,31.501604,41.4577)"><stop
         offset="0"
         style="stop-color:#002d68;stop-opacity:1"
         id="stop260" /><stop
         offset="1"
         style="stop-color:#002d68;stop-opacity:0"
         id="stop262" /></radialGradient><radialGradient
       id="_Radial18"
       cx="0"
       cy="0"
       r="1"
       gradientUnits="userSpaceOnUse"
       gradientTransform="matrix(55.5618,-7.25333,2.08197,15.9483,72.5849,43.2523)"><stop
         offset="0"
         style="stop-color:#00326d;stop-opacity:1"
         id="stop265" /><stop
         offset="1"
         style="stop-color:#003b79;stop-opacity:0"
         id="stop267" /></radialGradient><radialGradient
       id="_Radial19"
       cx="0"
       cy="0"
       r="1"
       gradientUnits="userSpaceOnUse"
       gradientTransform="matrix(50.0892,5.26339,-1.61895,15.4438,75.3088,37.6118)"><stop
         offset="0"
         style="stop-color:#00326d;stop-opacity:1"
         id="stop270" /><stop
         offset="1"
         style="stop-color:#003b79;stop-opacity:0"
         id="stop272" /></radialGradient><radialGradient
       id="_Radial20"
       cx="0"
       cy="0"
       r="1"
       gradientUnits="userSpaceOnUse"
       gradientTransform="matrix(42.2509,-5.13094,1.62846,13.3715,72.1116,43.3493)"><stop
         offset="0"
         style="stop-color:#00326d;stop-opacity:1"
         id="stop275" /><stop
         offset="1"
         style="stop-color:#003b79;stop-opacity:0"
         id="stop277" /></radialGradient><linearGradient
       id="_Linear21"
       x1="0"
       y1="0"
       x2="1"
       y2="0"
       gradientUnits="userSpaceOnUse"
       gradientTransform="matrix(-48.7206,0,0,48.7206,59.263604,51.1978)"><stop
         offset="0"
         style="stop-color:#f5f7fa;stop-opacity:1"
         id="stop280" /><stop
         offset="0.53"
         style="stop-color:#f1f4f2;stop-opacity:1"
         id="stop282" /><stop
         offset="1"
         style="stop-color:#bad7e9;stop-opacity:1"
         id="stop284" /></linearGradient><linearGradient
       id="_Linear22"
       x1="0"
       y1="0"
       x2="1"
       y2="0"
       gradientUnits="userSpaceOnUse"
       gradientTransform="matrix(-43.2077,0,0,43.2077,58.992904,23.6999)"><stop
         offset="0"
         style="stop-color:#fafafa;stop-opacity:1"
         id="stop287" /><stop
         offset="0.26"
         style="stop-color:#f1f6f8;stop-opacity:1"
         id="stop289" /><stop
         offset="0.73"
         style="stop-color:#dce5eb;stop-opacity:1"
         id="stop291" /><stop
         offset="1"
         style="stop-color:#bbcfda;stop-opacity:1"
         id="stop293" /></linearGradient><linearGradient
       id="_Linear23"
       x1="0"
       y1="0"
       x2="1"
       y2="0"
       gradientUnits="userSpaceOnUse"
       gradientTransform="matrix(0,-47.9791,-47.9791,0,87.071804,48.0003)"><stop
         offset="0"
         style="stop-color:#fdfdff;stop-opacity:1"
         id="stop296" /><stop
         offset="0.26"
         style="stop-color:#f1f2f2;stop-opacity:1"
         id="stop298" /><stop
         offset="0.73"
         style="stop-color:#bfd2e0;stop-opacity:1"
         id="stop300" /><stop
         offset="1"
         style="stop-color:#afc0cc;stop-opacity:1"
         id="stop302" /></linearGradient><linearGradient
       id="_Linear24"
       x1="0"
       y1="0"
       x2="1"
       y2="0"
       gradientUnits="userSpaceOnUse"
       gradientTransform="matrix(0,-48.0543,-48.0543,0,86.277804,48.0546)"><stop
         offset="0"
         style="stop-color:#f1f6f6;stop-opacity:1"
         id="stop305" /><stop
         offset="0.41"
         style="stop-color:#fdfdfd;stop-opacity:1"
         id="stop307" /><stop
         offset="0.55"
         style="stop-color:#f5f8fa;stop-opacity:1"
         id="stop309" /><stop
         offset="0.89"
         style="stop-color:#d6e1e7;stop-opacity:1"
         id="stop311" /><stop
         offset="0.98"
         style="stop-color:#c3d3dd;stop-opacity:1"
         id="stop313" /><stop
         offset="1"
         style="stop-color:#c3d3dd;stop-opacity:1"
         id="stop315" /></linearGradient><radialGradient
       id="_Radial25"
       cx="0"
       cy="0"
       r="1"
       gradientUnits="userSpaceOnUse"
       gradientTransform="matrix(14.7354,9.52776,-4.62893,7.15901,40.0035,38.6087)"><stop
         offset="0"
         style="stop-color:#153e68;stop-opacity:1"
         id="stop318" /><stop
         offset="1"
         style="stop-color:#153e68;stop-opacity:0"
         id="stop320" /></radialGradient><radialGradient
       id="_Radial26"
       cx="0"
       cy="0"
       r="1"
       gradientUnits="userSpaceOnUse"
       gradientTransform="matrix(13.9988,10.5803,-4.31511,5.70934,39.5341,36.6037)"><stop
         offset="0"
         style="stop-color:#153e68;stop-opacity:1"
         id="stop323" /><stop
         offset="1"
         style="stop-color:#153e68;stop-opacity:0"
         id="stop325" /></radialGradient><radialGradient
       id="_Radial27"
       cx="0"
       cy="0"
       r="1"
       gradientUnits="userSpaceOnUse"
       gradientTransform="matrix(14.5634,-8.14176,3.11074,5.56427,81.8521,41.5703)"><stop
         offset="0"
         style="stop-color:#153e68;stop-opacity:1"
         id="stop328" /><stop
         offset="1"
         style="stop-color:#153e68;stop-opacity:0"
         id="stop330" /></radialGradient><radialGradient
       id="_Radial28"
       cx="0"
       cy="0"
       r="1"
       gradientUnits="userSpaceOnUse"
       gradientTransform="matrix(14.4062,-8.05386,3.42371,6.12408,84.5558,38.3112)"><stop
         offset="0"
         style="stop-color:#153e68;stop-opacity:1"
         id="stop333" /><stop
         offset="1"
         style="stop-color:#153e68;stop-opacity:0"
         id="stop335" /></radialGradient><radialGradient
       id="_Radial29"
       cx="0"
       cy="0"
       r="1"
       gradientUnits="userSpaceOnUse"
       gradientTransform="matrix(13.5894,-9.36638,4.22241,6.1262,84.3487,41.3934)"><stop
         offset="0"
         style="stop-color:#153e68;stop-opacity:1"
         id="stop338" /><stop
         offset="1"
         style="stop-color:#1a426b;stop-opacity:0"
         id="stop340" /></radialGradient><radialGradient
       id="_Radial30"
       cx="0"
       cy="0"
       r="1"
       gradientUnits="userSpaceOnUse"
       gradientTransform="matrix(5.21516,-11.6826,5.1171,2.2843,94.4254,30.2021)"><stop
         offset="0"
         style="stop-color:#153e68;stop-opacity:1"
         id="stop343" /><stop
         offset="1"
         style="stop-color:#1b436c;stop-opacity:0"
         id="stop345" /></radialGradient><linearGradient
       id="_Linear31"
       x1="0"
       y1="0"
       x2="1"
       y2="0"
       gradientUnits="userSpaceOnUse"
       gradientTransform="matrix(4.72457,-33.536,33.536,4.72457,39.008504,44.0635)"><stop
         offset="0"
         style="stop-color:#fdfdff;stop-opacity:1"
         id="stop348" /><stop
         offset="0.26"
         style="stop-color:#f1f2f2;stop-opacity:1"
         id="stop350" /><stop
         offset="0.73"
         style="stop-color:#bfd2e0;stop-opacity:1"
         id="stop352" /><stop
         offset="1"
         style="stop-color:#afc0cc;stop-opacity:1"
         id="stop354" /></linearGradient><linearGradient
       id="_Linear32"
       x1="0"
       y1="0"
       x2="1"
       y2="0"
       gradientUnits="userSpaceOnUse"
       gradientTransform="matrix(-33.3203,-3.43575e-4,3.43575e-4,-33.3203,57.946004,27.3411)"><stop
         offset="0"
         style="stop-color:#fafafa;stop-opacity:1"
         id="stop357" /><stop
         offset="0.26"
         style="stop-color:#f1f6f8;stop-opacity:1"
         id="stop359" /><stop
         offset="0.73"
         style="stop-color:#dce5eb;stop-opacity:1"
         id="stop361" /><stop
         offset="1"
         style="stop-color:#bbcfda;stop-opacity:1"
         id="stop363" /></linearGradient><radialGradient
       id="_Radial33"
       cx="0"
       cy="0"
       r="1"
       gradientUnits="userSpaceOnUse"
       gradientTransform="matrix(1.92018,5.55941,-10.6179,3.66735,47.0904,55.6053)"><stop
         offset="0"
         style="stop-color:#153e68;stop-opacity:1"
         id="stop366" /><stop
         offset="1"
         style="stop-color:#153e68;stop-opacity:0"
         id="stop368" /></radialGradient><radialGradient
       id="_Radial34"
       cx="0"
       cy="0"
       r="1"
       gradientUnits="userSpaceOnUse"
       gradientTransform="matrix(0.21678,5.25887,-9.80783,0.404296,45.3907,54.4033)"><stop
         offset="0"
         style="stop-color:#153e68;stop-opacity:1"
         id="stop371" /><stop
         offset="1"
         style="stop-color:#153e68;stop-opacity:0"
         id="stop373" /></radialGradient><radialGradient
       id="_Radial35"
       cx="0"
       cy="0"
       r="1"
       gradientUnits="userSpaceOnUse"
       gradientTransform="matrix(1.54211,3.64848,-8.0801,3.41524,51.9443,56.0636)"><stop
         offset="0"
         style="stop-color:#153e68;stop-opacity:1"
         id="stop376" /><stop
         offset="1"
         style="stop-color:#153e68;stop-opacity:0"
         id="stop378" /></radialGradient><linearGradient
       id="_Linear36"
       x1="0"
       y1="0"
       x2="1"
       y2="0"
       gradientUnits="userSpaceOnUse"
       gradientTransform="matrix(-12.2342,-17.8556,17.8556,-12.2342,50.344104,56.5562)"><stop
         offset="0"
         style="stop-color:#fdfdff;stop-opacity:1"
         id="stop381" /><stop
         offset="0.26"
         style="stop-color:#f1f2f2;stop-opacity:1"
         id="stop383" /><stop
         offset="0.73"
         style="stop-color:#bfd2e0;stop-opacity:1"
         id="stop385" /><stop
         offset="1"
         style="stop-color:#afc0cc;stop-opacity:1"
         id="stop387" /></linearGradient><linearGradient
       id="_Linear37"
       x1="0"
       y1="0"
       x2="1"
       y2="0"
       gradientUnits="userSpaceOnUse"
       gradientTransform="matrix(-15.7162,14.3692,-14.3692,-15.7162,52.064804,40.5021)"><stop
         offset="0"
         style="stop-color:#fafafa;stop-opacity:1"
         id="stop390" /><stop
         offset="0.26"
         style="stop-color:#f1f6f8;stop-opacity:1"
         id="stop392" /><stop
         offset="0.73"
         style="stop-color:#dce5eb;stop-opacity:1"
         id="stop394" /><stop
         offset="1"
         style="stop-color:#bbcfda;stop-opacity:1"
         id="stop396" /></linearGradient><radialGradient
       id="_Radial38"
       cx="0"
       cy="0"
       r="1"
       gradientUnits="userSpaceOnUse"
       gradientTransform="matrix(-16.9591,0,0,16.9591,81.189104,56.2907)"><stop
         offset="0"
         style="stop-color:#f9f9fa;stop-opacity:1"
         id="stop399" /><stop
         offset="1"
         style="stop-color:#f5f7f7;stop-opacity:1"
         id="stop401" /></radialGradient><radialGradient
       id="_Radial39"
       cx="0"
       cy="0"
       r="1"
       gradientUnits="userSpaceOnUse"
       gradientTransform="matrix(8.96408,6.36252,-3.00685,4.23632,70.8134,58.194)"><stop
         offset="0"
         style="stop-color:#153e68;stop-opacity:1"
         id="stop404" /><stop
         offset="1"
         style="stop-color:#153e68;stop-opacity:0"
         id="stop406" /></radialGradient><radialGradient
       id="_Radial40"
       cx="0"
       cy="0"
       r="1"
       gradientUnits="userSpaceOnUse"
       gradientTransform="matrix(6.8821,4.88477,-3.00685,4.23632,69.5335,58.194)"><stop
         offset="0"
         style="stop-color:#153e68;stop-opacity:1"
         id="stop409" /><stop
         offset="1"
         style="stop-color:#153e68;stop-opacity:0"
         id="stop411" /></radialGradient><radialGradient
       id="_Radial41"
       cx="0"
       cy="0"
       r="1"
       gradientUnits="userSpaceOnUse"
       gradientTransform="matrix(6.8821,4.88477,-3.00685,4.23632,73.3098,58.4873)"><stop
         offset="0"
         style="stop-color:#153e68;stop-opacity:1"
         id="stop414" /><stop
         offset="1"
         style="stop-color:#153e68;stop-opacity:0"
         id="stop416" /></radialGradient><linearGradient
       id="_Linear42"
       x1="0"
       y1="0"
       x2="1"
       y2="0"
       gradientUnits="userSpaceOnUse"
       gradientTransform="matrix(18.4986,-11.2373,-11.2373,-18.4986,63.876604,57.4346)"><stop
         offset="0"
         style="stop-color:#fdfdff;stop-opacity:1"
         id="stop419" /><stop
         offset="0.26"
         style="stop-color:#f1f2f2;stop-opacity:1"
         id="stop421" /><stop
         offset="0.73"
         style="stop-color:#bfd2e0;stop-opacity:1"
         id="stop423" /><stop
         offset="1"
         style="stop-color:#afc0cc;stop-opacity:1"
         id="stop425" /></linearGradient><linearGradient
       id="_Linear43"
       x1="0"
       y1="0"
       x2="1"
       y2="0"
       gradientUnits="userSpaceOnUse"
       gradientTransform="matrix(8.40915,19.5646,19.5646,-8.40915,68.915804,42.0953)"><stop
         offset="0"
         style="stop-color:#fafafa;stop-opacity:1"
         id="stop428" /><stop
         offset="0.26"
         style="stop-color:#f1f6f8;stop-opacity:1"
         id="stop430" /><stop
         offset="0.73"
         style="stop-color:#dce5eb;stop-opacity:1"
         id="stop432" /><stop
         offset="1"
         style="stop-color:#bbcfda;stop-opacity:1"
         id="stop434" /></linearGradient><linearGradient
       id="_Linear44"
       x1="0"
       y1="0"
       x2="1"
       y2="0"
       gradientUnits="userSpaceOnUse"
       gradientTransform="matrix(6.46873,14.3437,14.3437,-6.46873,80.205404,43.5987)"><stop
         offset="0"
         style="stop-color:#aebcd0;stop-opacity:1"
         id="stop437" /><stop
         offset="0.22"
         style="stop-color:#859bb9;stop-opacity:1"
         id="stop439" /><stop
         offset="0.53"
         style="stop-color:#a1b1c9;stop-opacity:1"
         id="stop441" /><stop
         offset="1"
         style="stop-color:#97a9c3;stop-opacity:1"
         id="stop443" /></linearGradient><linearGradient
       id="_Linear45"
       x1="0"
       y1="0"
       x2="1"
       y2="0"
       gradientUnits="userSpaceOnUse"
       gradientTransform="matrix(0,-21.0692,-21.0692,0,56.945004,72.4852)"><stop
         offset="0"
         style="stop-color:#c0cbda;stop-opacity:1"
         id="stop446" /><stop
         offset="0.02"
         style="stop-color:#c0cbda;stop-opacity:1"
         id="stop448" /><stop
         offset="0.11"
         style="stop-color:#d4dbe5;stop-opacity:1"
         id="stop450" /><stop
         offset="0.45"
         style="stop-color:#f5f6f9;stop-opacity:1"
         id="stop452" /><stop
         offset="0.59"
         style="stop-color:#fdfdfd;stop-opacity:1"
         id="stop454" /><stop
         offset="1"
         style="stop-color:#fcfdfd;stop-opacity:1"
         id="stop456" /></linearGradient><radialGradient
       id="_Radial46"
       cx="0"
       cy="0"
       r="1"
       gradientUnits="userSpaceOnUse"
       gradientTransform="matrix(-18.2184,0,0,12.4951,60.072904,33.9789)"><stop
         offset="0"
         style="stop-color:#3f51b5;stop-opacity:1"
         id="stop459" /><stop
         offset="1"
         style="stop-color:#04bbf3;stop-opacity:1"
         id="stop461" /></radialGradient><linearGradient
       id="_Linear47"
       x1="0"
       y1="0"
       x2="1"
       y2="0"
       gradientUnits="userSpaceOnUse"
       gradientTransform="matrix(0,-45.2637,-45.2637,0,60.004004,52.5003)"><stop
         offset="0"
         style="stop-color:#afc0cc;stop-opacity:1"
         id="stop464" /><stop
         offset="0.24"
         style="stop-color:#afc0cc;stop-opacity:1"
         id="stop466" /><stop
         offset="0.74"
         style="stop-color:#f1f2f2;stop-opacity:1"
         id="stop468" /><stop
         offset="1"
         style="stop-color:#fdfdff;stop-opacity:1"
         id="stop470" /></linearGradient><linearGradient
       id="_Linear48"
       x1="0"
       y1="0"
       x2="1"
       y2="0"
       gradientUnits="userSpaceOnUse"
       gradientTransform="matrix(0,-46.5257,-46.5257,0,60.004004,54.1373)"><stop
         offset="0"
         style="stop-color:#fafafa;stop-opacity:1"
         id="stop473" /><stop
         offset="0.26"
         style="stop-color:#f1f6f8;stop-opacity:1"
         id="stop475" /><stop
         offset="0.73"
         style="stop-color:#dce5eb;stop-opacity:1"
         id="stop477" /><stop
         offset="1"
         style="stop-color:#bbcfda;stop-opacity:1"
         id="stop479" /></linearGradient><linearGradient
       id="_Linear49"
       x1="0"
       y1="0"
       x2="1"
       y2="0"
       gradientUnits="userSpaceOnUse"
       gradientTransform="matrix(0,-39.9686,39.9686,0,79.415104,46.312)"><stop
         offset="0"
         style="stop-color:#f1f6f6;stop-opacity:1"
         id="stop482" /><stop
         offset="0.41"
         style="stop-color:#fdfdfd;stop-opacity:1"
         id="stop484" /><stop
         offset="0.55"
         style="stop-color:#f5f8fa;stop-opacity:1"
         id="stop486" /><stop
         offset="0.89"
         style="stop-color:#d6e1e7;stop-opacity:1"
         id="stop488" /><stop
         offset="0.98"
         style="stop-color:#c3d3dd;stop-opacity:1"
         id="stop490" /><stop
         offset="1"
         style="stop-color:#c3d3dd;stop-opacity:1"
         id="stop492" /></linearGradient><linearGradient
       id="_Linear50"
       x1="0"
       y1="0"
       x2="1"
       y2="0"
       gradientUnits="userSpaceOnUse"
       gradientTransform="matrix(0,56.99,-56.99,0,222.499,18.5284)"><stop
         offset="0"
         style="stop-color:#6b6b6b;stop-opacity:1"
         id="stop495" /><stop
         offset="1"
         style="stop-color:#4a4a4a;stop-opacity:1"
         id="stop497" /></linearGradient><linearGradient
       id="_Linear51"
       x1="0"
       y1="0"
       x2="1"
       y2="0"
       gradientUnits="userSpaceOnUse"
       gradientTransform="matrix(0,56.9903,12.5895,0,281.749,18.5279)"><stop
         offset="0"
         style="stop-color:#6b6b6b;stop-opacity:1"
         id="stop500" /><stop
         offset="1"
         style="stop-color:#4b4b4b;stop-opacity:1"
         id="stop502" /></linearGradient><linearGradient
       id="_Linear52"
       x1="0"
       y1="0"
       x2="1"
       y2="0"
       gradientUnits="userSpaceOnUse"
       gradientTransform="matrix(17.0441,33.7943,-33.7943,17.0441,139.694,21.0801)"><stop
         offset="0"
         style="stop-color:#6b6b6b;stop-opacity:1"
         id="stop505" /><stop
         offset="1"
         style="stop-color:#4a4a4a;stop-opacity:1"
         id="stop507" /></linearGradient><linearGradient
       id="_Linear53"
       x1="0"
       y1="0"
       x2="1"
       y2="0"
       gradientUnits="userSpaceOnUse"
       gradientTransform="matrix(23.1173,-6.36705,6.36705,23.1173,153.941,52.2409)"><stop
         offset="0"
         style="stop-color:#6b6b6b;stop-opacity:1"
         id="stop510" /><stop
         offset="1"
         style="stop-color:#4a4a4a;stop-opacity:1"
         id="stop512" /></linearGradient><linearGradient
       id="_Linear54"
       x1="0"
       y1="0"
       x2="1"
       y2="0"
       gradientUnits="userSpaceOnUse"
       gradientTransform="matrix(11.4607,-35.1657,35.1657,11.4607,195.608,59.0142)"><stop
         offset="0"
         style="stop-color:#6b6b6b;stop-opacity:1"
         id="stop515" /><stop
         offset="1"
         style="stop-color:#4a4a4a;stop-opacity:1"
         id="stop517" /></linearGradient><linearGradient
       id="_Linear55"
       x1="0"
       y1="0"
       x2="1"
       y2="0"
       gradientUnits="userSpaceOnUse"
       gradientTransform="matrix(-19.0116,-0.0985055,0.0985055,-19.0116,266.325,54.4147)"><stop
         offset="0"
         style="stop-color:#6b6b6b;stop-opacity:1"
         id="stop520" /><stop
         offset="1"
         style="stop-color:#4a4a4a;stop-opacity:1"
         id="stop522" /></linearGradient><linearGradient
       id="_Linear56"
       x1="0"
       y1="0"
       x2="1"
       y2="0"
       gradientUnits="userSpaceOnUse"
       gradientTransform="matrix(7.05273,-52.9934,52.9934,7.05273,237.313,71.8385)"><stop
         offset="0"
         style="stop-color:#4b4b4b;stop-opacity:1"
         id="stop525" /><stop
         offset="1"
         style="stop-color:#6b6b6b;stop-opacity:1"
         id="stop527" /></linearGradient></defs></svg>
